<?xml version="1.0" encoding="UTF-8"?>
<?xml-stylesheet type="text/css" href="index.css"?>
<!DOCTYPE svg PUBLIC "-//W3C//DTD SVG 1.1//EN" "http://www.w3.org/Graphics/SVG/1.1/DTD/svg11.dtd">
<!-- Creator: CorelDRAW 2018 (64-Bit Оценочная версия) -->
<svg xmlns="http://www.w3.org/2000/svg" xml:space="preserve" width="727px" height="591px" version="1.1"
viewBox="0 0 166.61 135.37"
 xmlns:xlink="http://www.w3.org/1999/xlink">
 <g id="modal_map">
  <path class="ico-modal" d="M135.37 0c-14.38,0 -26.03,11.65 -26.03,26.03 0,3.89 0.85,7.58 2.38,10.88l23.65 46.4 23.65 -46.4c1.53,-3.3 2.39,-6.99 2.39,-10.88 0,-14.38 -11.66,-26.03 -26.04,-26.03zm0 41.65c-8.62,0 -15.62,-6.99 -15.62,-15.62 0,-8.62 7,-15.62 15.62,-15.62 8.63,0 15.62,7 15.62,15.62 0,8.63 -6.99,15.62 -15.62,15.62zm7.79 49.29l9.48 18.95 -24.03 12.01 -8.05 -40.29 1.49 -1.5 -4.96 -9.76 -2.54 2.54 -31.24 -20.82 -31.24 20.82 -20.83 -20.82 -31.24 62.48 41.65 20.82 41.66 -20.82 41.65 20.82 41.65 -20.82 -17.57 -35.14 -5.88 11.53zm-105.17 30.96l-24.02 -12.01 20.12 -40.25 10.61 10.62 1.36 1.35 -8.07 40.29zm40.11 -16.4l-29.13 14.57 7.53 -37.62 1.34 -0.89 20.26 -13.51 0 37.45zm10.41 0l0 -37.45 20.26 13.51 1.33 0.89 7.53 37.62 -29.12 -14.57z"/>
 </g>
</svg>
