<?xml version="1.0" encoding="UTF-8"?>
<!DOCTYPE svg PUBLIC "-//W3C//DTD SVG 1.1//EN" "http://www.w3.org/Graphics/SVG/1.1/DTD/svg11.dtd">
<!-- Creator: CorelDRAW 2018 (64-Bit Оценочная версия) -->
<svg xmlns="http://www.w3.org/2000/svg" xml:space="preserve" width="591px" height="591px" version="1.1"
viewBox="0 0 1936.89 1936.89"
 xmlns:xlink="http://www.w3.org/1999/xlink">
 <g id="modal_outside">
  <path d="M741.47 684.72c-31.31,0 -56.75,25.44 -56.75,56.75 0,31.3 25.44,56.74 56.75,56.74 31.3,0 56.74,-25.44 56.74,-56.74 0,-31.31 -25.44,-56.75 -56.74,-56.75z"/>
  <path d="M684.72 1422.4l0 170.24 113.49 0 0 -170.24c0,-31.3 -25.44,-56.74 -56.74,-56.74 -31.31,0 -56.75,25.44 -56.75,56.74z"/>
  <path d="M0 1880.14c0,31.34 25.41,56.75 56.75,56.75l1823.4 0c31.34,0 56.74,-25.41 56.74,-56.75l0 -174.01 -1936.89 0 0 174.01z"/>
  <polygon points="1422.4,1592.64 1535.89,1592.64 1535.89,1365.66 1422.4,1365.66 "/>
  <path d="M1819.62 1592.64l0 -340.47 60.53 0c24.43,0 46.1,-15.63 53.81,-38.79 7.75,-23.16 -0.23,-48.71 -19.78,-63.34l-401 -340.47c-20.17,-15.18 -47.88,-15.18 -68.05,0l-397.21 340.47c-19.57,14.63 -27.55,40.18 -19.79,63.34 7.7,23.16 29.37,38.79 53.81,38.79l56.74 0 0 340.47 170.24 0 0 -283.72c0,-31.37 25.37,-56.75 56.74,-56.75l226.98 0c31.36,0 56.74,25.38 56.74,56.75l0 283.72 170.24 0z"/>
  <path d="M741.47 911.7c-93.87,0 -170.24,-76.36 -170.24,-170.23 0,-93.87 76.37,-170.24 170.24,-170.24 93.87,0 170.23,76.37 170.23,170.24 0,93.87 -76.36,170.23 -170.23,170.23zm40.12 -777.8c-22.17,-22.16 -58.08,-22.16 -80.25,0l-453.96 453.96c-22.16,22.16 -22.16,58.07 0,80.24 22.17,22.17 58.08,22.17 80.25,0l16.62 -16.63 0 941.17 226.98 0 0 -170.24c0,-93.87 76.37,-170.23 170.24,-170.23 93.87,0 170.23,76.36 170.23,170.23l0 170.24 113.49 0 0 -236.68c-48.6,-17.12 -87.83,-55.86 -104.74,-106.78 -23.32,-69.49 0.56,-145.97 59.47,-190.02l158.76 -136.22 0 -271.47 16.63 16.63c22.16,22.17 58.07,22.17 80.24,0 22.16,-22.17 22.17,-58.07 0,-80.24l-453.96 -453.96z"/>
  <path  d="M230.76 851.91l-191.97 62.73c-23.16,7.7 -38.79,29.37 -38.79,53.81l0 170.23 56.75 0c31.36,0 56.74,25.38 56.74,56.75 0,31.36 -25.38,56.74 -56.74,56.74l-56.75 0 0 113.49 56.75 0c31.36,0 56.74,25.38 56.74,56.74 0,31.37 -25.38,56.75 -56.74,56.75l-56.75 0 0 113.49 230.76 0 0 -740.73z"/>
  <path  d="M1922.77 378.84c-26.9,-111.76 -101.18,-378.84 -216.64,-378.84 -115.28,0 -185.39,266.51 -211.06,372.37 -12.26,81.71 -15.92,102.33 -15.92,142.12 0,132.78 70.36,162.29 170.23,167.96l0 94.64 113.49 97.19 0 -191.83c99.87,-5.67 174.02,-35.18 174.02,-167.96 0,-42.31 -5.02,-71.87 -14.12,-135.65z"/>
 </g>
</svg>
