<?xml version="1.0" encoding="UTF-8"?>
<?xml-stylesheet type="text/css" href="css/index.css"?>
<!DOCTYPE svg PUBLIC "-//W3C//DTD SVG 1.1//EN" "http://www.w3.org/Graphics/SVG/1.1/DTD/svg11.dtd">
<!-- Creator: CorelDRAW 2018 (64-Bit Оценочная версия) -->
<svg xmlns="http://www.w3.org/2000/svg" xml:space="preserve" width="591px" height="591px" version="1.1" style="fill:white"
viewBox="0 0 95.6 95.6"
 xmlns:xlink="http://www.w3.org/1999/xlink">
  <g id="modal_inside">
  <polygon  class="ico-modal" points="28.01,28.38 45,28.38 45,16.99 28.01,16.99 "/>
  <polygon  class="ico-modal" points="50.6,11.39 61.8,11.39 61.8,0 50.6,0 "/>
  <polygon  class="ico-modal" points="50.6,28.38 61.8,28.38 61.8,16.99 50.6,16.99 "/>
  <path  class="ico-modal" d="M28.01 38.35c2.04,1.85 3.57,4.21 4.53,6.84l12.46 0 0 -11.21 -16.99 0 0 4.37z"/>
  <polygon  class="ico-modal" points="67.41,28.38 84.21,28.38 84.21,16.99 67.41,16.99 "/>
  <polygon   class="ico-modal" points="50.6,45.19 61.8,45.19 61.8,33.98 50.6,33.98 "/>
  <path  class="ico-modal" d="M45 0l-14.19 0c-1.55,0 -2.8,1.25 -2.8,2.8l0 8.59 16.99 0 0 -11.39z"/>
  <polygon  class="ico-modal" points="67.41,45.19 84.21,45.19 84.21,33.98 67.41,33.98 "/>
  <path  class="ico-modal" d="M84.21 2.8c0,-1.55 -1.25,-2.8 -2.8,-2.8l-14 0 0 11.39 16.8 0 0 -8.59z"/>
  <path  class="ico-modal" d="M9.24 66.75c-1.12,-1.06 -1.12,-2.85 0,-3.92 1.07,-1.12 2.86,-1.12 3.92,0l0.84 0.79 0 -10.03c0,-1.57 1.24,-2.8 2.8,-2.8 1.57,0 2.81,1.23 2.81,2.8l0 15.63 0.84 -0.79c1.06,-1.12 2.85,-1.12 3.92,0 1.12,1.07 1.12,2.86 0,3.92l-4.76 4.82 0 6.95c7.95,-1.29 14,-8.24 14,-16.53 0,-4.48 -1.79,-8.74 -5.1,-11.93l-1.12 -1.06 0.34 -1.57c0.22,-0.73 0.28,-1.51 0.28,-2.24 0,-6.16 -5.04,-11.21 -11.21,-11.21 -6.16,0 -11.2,5.05 -11.2,11.21 0,0.73 0.06,1.51 0.28,2.24l0.34 1.57 -1.12 1.06c-3.31,3.19 -5.1,7.45 -5.1,11.93 0,8.29 6.05,15.24 14,16.53l0 -12.55 -4.76 -4.82z"/>
  <path  class="ico-modal" d="M2.8 90c-1.55,0 -2.8,1.25 -2.8,2.8 0,1.55 1.25,2.8 2.8,2.8l42.2 0 0 -22.41 -6.51 0c-1.5,5.88 -5.29,10.85 -10.48,13.81l0 3 -8.4 0 0 -5.88c-0.9,0.22 -1.85,0.28 -2.81,0.28 -0.95,0 -1.9,-0.06 -2.8,-0.28l0 5.88 -11.2 0z"/>
  <polygon  class="ico-modal" points="50.6,95.6 61.8,95.6 61.8,73.19 50.6,73.19 "/>
  <path  class="ico-modal" d="M92.8 90l-8.59 0 0 -39.21 -50.6 0c0,0.7 -0.04,1.35 -0.12,1.97 3.71,4.11 5.72,9.31 5.72,14.83l31 0c1.54,0 2.8,1.26 2.8,2.8 0,1.55 -1.26,2.8 -2.8,2.8l-2.8 0 0 22.41 25.39 0c1.55,0 2.8,-1.25 2.8,-2.8 0,-1.55 -1.25,-2.8 -2.8,-2.8z"/>
 </g>
</svg>
